<?xml version="1.0" standalone="no"?>
<!DOCTYPE svg PUBLIC "-//W3C//DTD SVG 20010904//EN"
 "http://www.w3.org/TR/2001/REC-SVG-20010904/DTD/svg10.dtd">
<svg version="1.0" xmlns="http://www.w3.org/2000/svg"
 width="256.000000pt" height="256.000000pt" viewBox="0 0 256.000000 256.000000"
 preserveAspectRatio="xMidYMid meet">

<g transform="translate(0.000000,256.000000) scale(0.100000,-0.100000)"
fill="#000000" stroke="none">
<path d="M322 2550 c-113 -17 -227 -102 -280 -210 l-27 -55 0 -1000 0 -1000
27 -57 c36 -78 95 -139 175 -179 l67 -34 996 0 995 0 66 32 c79 39 140 102
177 181 l27 57 0 1000 0 1000 -28 57 c-45 93 -134 169 -227 196 -42 12 -1888
23 -1968 12z m143 -626 c16 -18 25 -39 25 -60 0 -32 -2 -34 -34 -34 -30 0 -35
3 -38 28 -2 19 -9 28 -25 30 -31 5 -43 -30 -43 -123 0 -93 12 -128 43 -123 17
2 23 11 27 38 4 31 9 35 38 38 40 4 47 -11 32 -67 -21 -80 -120 -106 -179 -47
-25 26 -26 29 -26 162 l0 136 28 24 c41 35 119 34 152 -2z m278 6 c60 -48 62
-273 3 -329 -53 -50 -154 -31 -181 33 -18 42 -20 201 -4 243 20 54 48 73 104
73 37 0 60 -6 78 -20z m213 -86 l39 -107 3 107 3 106 34 0 35 0 0 -186 0 -185
-37 3 -37 3 -40 110 -41 109 -3 -113 -3 -112 -32 3 -32 3 -3 170 c-1 93 0 175
2 182 3 7 21 13 39 13 l34 0 39 -106z m358 75 c15 -18 26 -43 26 -60 0 -26 -3
-29 -34 -29 -29 0 -34 4 -39 30 -5 24 -12 30 -32 30 -20 0 -25 -5 -25 -25 0
-18 14 -35 53 -63 70 -52 79 -64 84 -117 5 -39 2 -47 -24 -74 -38 -38 -74 -47
-124 -32 -44 13 -69 50 -69 101 0 27 3 30 34 30 31 0 34 -3 40 -36 6 -31 10
-35 34 -32 21 2 28 9 30 30 3 22 -6 33 -50 66 -73 54 -83 68 -83 119 0 61 36
93 105 93 42 0 52 -4 74 -31z m166 -111 c0 -79 4 -149 9 -156 5 -8 21 -12 37
-10 l29 3 3 153 3 153 37 -3 37 -3 0 -150 c0 -126 -3 -155 -17 -177 -35 -54
-136 -61 -184 -13 -23 23 -24 29 -24 185 l0 160 35 0 35 0 0 -142z m295 110
c3 -18 4 -86 2 -150 l-3 -118 58 0 58 0 0 -35 0 -35 -95 0 -95 0 0 185 0 185
35 0 c31 0 35 -3 40 -32z m325 -3 c0 -33 -2 -35 -35 -35 l-35 0 0 -150 0 -150
-40 0 -40 0 0 150 0 150 -35 0 c-33 0 -35 2 -35 35 l0 35 110 0 110 0 0 -35z
m230 0 l0 -35 -55 0 -55 0 0 -40 0 -40 56 0 c54 0 55 0 52 -27 -3 -26 -7 -28
-55 -31 l-53 -3 0 -44 0 -44 58 -3 c56 -3 57 -3 57 -33 l0 -30 -97 -3 -98 -3
0 179 c0 98 3 182 7 185 3 4 46 7 95 7 l88 0 0 -35z m-532 -462 c-296 -2 -780
-2 -1076 0 -295 1 -53 2 538 2 591 0 833 -1 538 -2z m249 -66 c129 -66 202
-222 173 -369 -6 -35 -18 -74 -25 -88 -12 -23 -10 -28 19 -62 32 -36 56 -95
56 -135 0 -11 -11 -42 -25 -69 l-25 -48 28 -31 c15 -16 37 -40 49 -53 23 -23
31 -52 14 -52 -5 0 -32 25 -60 56 l-52 56 -40 -16 c-50 -20 -115 -20 -153 -1
-38 20 -37 20 -65 -20 -13 -19 -27 -35 -32 -35 -4 0 -38 44 -75 97 -38 54 -92
132 -121 173 -75 106 -114 188 -120 259 -6 64 9 145 37 201 36 70 125 140 205
161 54 15 159 2 212 -24z m-1549 -85 c47 -24 70 -63 78 -135 l7 -57 -62 0 -61
0 0 31 c0 63 -41 99 -90 79 -16 -7 -31 -19 -35 -28 -12 -29 -18 -234 -10 -326
8 -104 26 -132 78 -122 43 9 49 16 56 83 l6 58 64 3 64 3 -7 -57 c-15 -127
-64 -183 -170 -191 -79 -7 -126 8 -165 52 -39 45 -50 86 -57 220 -11 189 16
329 71 375 51 42 164 48 233 12z m542 -47 l0 -54 -106 -3 -106 -3 -2 -70 -1
-70 98 -3 97 -3 0 -54 0 -55 -97 0 -98 0 0 -85 -1 -85 108 0 108 0 0 -60 0
-60 -170 0 -170 0 0 330 0 330 170 0 170 0 0 -55z m435 32 c52 -30 79 -96 72
-179 -11 -124 -71 -178 -199 -178 l-68 0 0 -140 0 -141 -62 3 -63 3 -3 328 -2
327 142 0 c130 0 147 -2 183 -23z"/>
<path d="M636 1874 c-3 -9 -6 -62 -6 -119 0 -97 2 -105 22 -116 18 -10 24 -8
40 11 14 18 18 40 18 112 0 49 -5 98 -10 109 -13 23 -55 25 -64 3z"/>
<path d="M1857 1189 c-22 -13 -47 -61 -47 -93 0 -33 44 -83 79 -91 61 -13 121
35 121 98 0 54 -43 97 -97 97 -21 0 -46 -5 -56 -11z"/>
<path d="M1275 1208 c-3 -8 -5 -53 -3 -99 l3 -84 55 3 c70 3 90 24 90 92 0 65
-21 88 -87 96 -41 5 -54 3 -58 -8z"/>
</g>
</svg>
